<?xml version="1.0" encoding="UTF-8"?>
<svg id="Capa_2" data-name="Capa 2" xmlns="http://www.w3.org/2000/svg" xmlns:xlink="http://www.w3.org/1999/xlink" viewBox="0 0 639.39 177">
  <defs>
    <style>
      .cls-1 {
        fill: #62ff99;
      }

      .cls-2 {
        fill: #fff;
      }

      .cls-3 {
        fill: url(#Degradado_sin_nombre_18);
      }
    </style>
    <linearGradient id="Degradado_sin_nombre_18" data-name="Degradado sin nombre 18" x1=".2" y1="88.5" x2="180.71" y2="88.5" gradientUnits="userSpaceOnUse">
      <stop offset="0" stop-color="#62ff99"/>
      <stop offset=".54" stop-color="#06ae73"/>
      <stop offset=".99" stop-color="#067660"/>
    </linearGradient>
  </defs>
  <g id="Capa_1-2" data-name="Capa 1">
    <g>
      <g>
        <path class="cls-2" d="M233.54,77.11v-41.73h10.62v6.6h.46c1.21-1.87,3.24-3.57,6.07-5.08,2.83-1.52,6.14-2.27,9.94-2.27,5.87,0,10.37,1.48,13.5,4.44,3.13,2.95,4.7,7.04,4.7,12.25v25.79h-10.62v-24.5c0-3.03-.94-5.42-2.81-7.17-1.87-1.74-4.53-2.62-7.96-2.62s-6.11.75-8.46,2.27c-2.35,1.52-3.96,3.19-4.82,5.01v27.01h-10.62Z"/>
        <path class="cls-2" d="M299.46,74.98c-3.99-1.92-7.04-4.52-9.14-7.78-2.1-3.26-3.15-6.91-3.15-10.96s1-7.72,3-11c2-3.29,4.84-5.88,8.53-7.78,3.69-1.9,7.94-2.84,12.74-2.84s8.85.94,12.44,2.81c3.59,1.87,6.36,4.45,8.31,7.74s2.92,6.98,2.92,11.08v2.57h-37.25c.66,3.09,2.45,5.58,5.39,7.48,2.93,1.9,6.8,2.84,11.61,2.84,3.28,0,6.45-.5,9.48-1.51s5.36-2.12,6.98-3.34v9.18c-1.67,1.12-4.1,2.12-7.28,3.04-3.19.91-6.63,1.36-10.32,1.36-5.51,0-10.27-.96-14.26-2.88ZM324.27,52.76c-.41-2.83-1.69-5.26-3.87-7.29-2.18-2.02-5.11-3.03-8.8-3.03s-6.78.96-9.26,2.88c-2.48,1.92-3.97,4.4-4.48,7.43h26.4Z"/>
        <path class="cls-2" d="M348.77,77.11h-11.76l18.36-21.09-17.75-20.63h11.91l11.68,13.5h.45l11.84-13.5h11.75l-17.9,20.41,18.36,21.32h-11.91l-12.21-14.11h-.46l-12.36,14.11Z"/>
        <path class="cls-2" d="M397.28,73.81c-2.76-2.71-4.14-6.67-4.14-11.87v-20.49h-7.81v-6.07h3.8c1.36,0,2.37-.35,3.03-1.06.65-.7.98-1.81.98-3.33v-5.69h10.62v10.09h12.52v6.07h-12.52v20.56c0,2.27.61,4.03,1.82,5.27,1.22,1.24,2.88,1.86,5.01,1.86s4.07-.3,5.69-.91v8.57c-1.47.4-2.73.68-3.79.84-1.06.15-2.28.23-3.64.23-4.96,0-8.81-1.35-11.57-4.06Z"/>
        <path class="cls-2" d="M457.93,75.02c-3.89-1.89-6.87-4.49-8.95-7.77-2.07-3.29-3.11-6.96-3.11-11s1.06-7.72,3.19-11c2.12-3.29,5.19-5.88,9.21-7.78s8.76-2.84,14.22-2.84c3.69,0,7.13.46,10.32,1.4s5.84,2.01,7.97,3.23v8.95c-2.17-1.46-4.8-2.7-7.89-3.71-3.09-1.01-6.37-1.52-9.86-1.52-5.21,0-9.21,1.22-11.98,3.64-2.79,2.43-4.18,5.64-4.18,9.64s1.36,7.2,4.06,9.64c2.71,2.43,6.49,3.64,11.34,3.64,3.39,0,6.61-.48,9.67-1.44,3.06-.96,5.5-2.07,7.32-3.33v8.95c-1.87,1.06-4.37,2.02-7.51,2.88-3.14.87-6.5,1.29-10.09,1.29-5.26,0-9.84-.95-13.74-2.85Z"/>
        <path class="cls-2" d="M509.93,75.02c-4.02-1.89-7.08-4.49-9.18-7.77-2.1-3.29-3.15-6.96-3.15-11s1.05-7.72,3.15-11c2.1-3.29,5.16-5.88,9.18-7.78,4.02-1.9,8.81-2.84,14.38-2.84s10.35.94,14.38,2.84c4.02,1.9,7.08,4.49,9.18,7.78,2.1,3.28,3.15,6.96,3.15,11s-1.05,7.71-3.15,11c-2.1,3.28-5.16,5.88-9.18,7.77-4.02,1.9-8.81,2.85-14.38,2.85s-10.35-.95-14.38-2.85ZM535.87,65.88c2.76-2.43,4.14-5.64,4.14-9.64s-1.38-7.21-4.14-9.64c-2.76-2.43-6.61-3.64-11.57-3.64s-8.81,1.22-11.57,3.64c-2.76,2.43-4.14,5.64-4.14,9.64s1.38,7.2,4.14,9.64c2.76,2.43,6.61,3.64,11.57,3.64s8.81-1.21,11.57-3.64Z"/>
        <path class="cls-2" d="M559.73,77.11v-41.73h10.62v6.6h.46c1.11-1.87,2.84-3.57,5.2-5.08,2.35-1.52,4.94-2.27,7.77-2.27h4.25v10.24h-4.25c-3.69,0-6.7.64-9.02,1.93-2.33,1.29-3.8,2.71-4.4,4.28v26.02h-10.62Z"/>
        <path class="cls-2" d="M603.74,74.98c-3.99-1.92-7.05-4.52-9.14-7.78-2.1-3.26-3.15-6.91-3.15-10.96s1-7.72,3-11c2-3.29,4.85-5.88,8.54-7.78,3.69-1.9,7.94-2.84,12.74-2.84s8.85.94,12.44,2.81c3.59,1.87,6.36,4.45,8.31,7.74,1.95,3.28,2.92,6.98,2.92,11.08v2.57h-37.25c.66,3.09,2.45,5.58,5.39,7.48s6.8,2.84,11.6,2.84c3.29,0,6.45-.5,9.49-1.51,3.03-1.01,5.36-2.12,6.98-3.34v9.18c-1.67,1.12-4.09,2.12-7.29,3.04-3.19.91-6.63,1.36-10.31,1.36-5.51,0-10.27-.96-14.26-2.88ZM628.54,52.76c-.41-2.83-1.69-5.26-3.87-7.29-2.18-2.02-5.11-3.03-8.8-3.03s-6.78.96-9.26,2.88c-2.48,1.92-3.97,4.4-4.48,7.43h26.4Z"/>
        <path class="cls-2" d="M234.68,142.1v-41.73h5.31v7.51h.38c1.11-1.92,2.94-3.65,5.5-5.2,2.55-1.54,5.45-2.31,8.69-2.31h3.41v5.08h-3.49c-2.58,0-4.88.47-6.9,1.41-2.02.94-3.67,2.11-4.93,3.52-1.27,1.42-2.15,2.86-2.65,4.33v27.39h-5.31Z"/>
        <path class="cls-2" d="M272.57,140.05c-3.72-1.87-6.57-4.44-8.57-7.7-2-3.26-3-6.97-3-11.11s.96-7.79,2.88-11.08c1.92-3.28,4.59-5.87,8-7.74s7.3-2.81,11.65-2.81,8.04.92,11.38,2.76c3.34,1.85,5.93,4.4,7.77,7.67,1.85,3.26,2.77,6.99,2.77,11.19v2.43h-39.14c.5,4.35,2.48,7.85,5.91,10.51,3.44,2.65,7.92,3.98,13.43,3.98,3.39,0,6.59-.51,9.6-1.52,3.01-1.01,5.32-2.15,6.94-3.41v5.23c-1.62,1.12-3.93,2.12-6.94,3.04-3.01.91-6.21,1.36-9.6,1.36-5.01,0-9.37-.94-13.09-2.81ZM300.15,118.81c-.25-2.63-1.06-5.05-2.43-7.25-1.37-2.19-3.25-3.95-5.65-5.27-2.41-1.32-5.17-1.98-8.31-1.98s-6.21.63-8.76,1.9c-2.56,1.27-4.59,3-6.11,5.2-1.52,2.2-2.38,4.66-2.58,7.4h33.83Z"/>
        <path class="cls-2" d="M333.75,142.1h-6.22l-19.42-41.73h5.61l16.69,36.64h.46l16.69-36.64h5.61l-19.42,41.73Z"/>
        <path class="cls-2" d="M367.55,140.05c-3.77-1.87-6.66-4.45-8.69-7.74-2.02-3.29-3.03-6.98-3.03-11.08s1.01-7.79,3.03-11.08c2.02-3.28,4.92-5.87,8.69-7.74,3.77-1.87,8.21-2.81,13.31-2.81s9.54.94,13.31,2.81,6.66,4.45,8.69,7.74,3.04,6.98,3.04,11.08-1.01,7.79-3.04,11.08c-2.03,3.28-4.92,5.87-8.69,7.74s-8.21,2.81-13.31,2.81-9.54-.94-13.31-2.81ZM391.52,136.03c2.96-1.41,5.21-3.4,6.75-5.96,1.55-2.55,2.31-5.5,2.31-8.83s-.77-6.29-2.31-8.84c-1.54-2.55-3.79-4.54-6.75-5.96-2.95-1.41-6.51-2.12-10.65-2.12s-7.7.71-10.65,2.12c-2.96,1.42-5.21,3.4-6.75,5.96-1.54,2.55-2.31,5.5-2.31,8.84s.77,6.28,2.31,8.83c1.54,2.56,3.79,4.54,6.75,5.96,2.96,1.41,6.51,2.12,10.65,2.12s7.7-.71,10.65-2.12Z"/>
        <path class="cls-2" d="M421.45,142.1h-5.31v-54.62h5.31v54.62Z"/>
        <path class="cls-2" d="M437.98,138.38c-3.19-2.98-4.78-7.12-4.78-12.43v-25.57h5.31v25.57c0,3.84,1.17,6.86,3.52,9.06,2.36,2.2,5.73,3.31,10.13,3.31,2.74,0,5.21-.53,7.43-1.6,2.22-1.06,4.08-2.4,5.57-4.02,1.49-1.62,2.6-3.24,3.31-4.85v-27.46h5.32v41.73h-5.32v-7.51h-.38c-1.27,2.12-3.36,4.04-6.3,5.73-2.93,1.69-6.29,2.54-10.08,2.54-5.97,0-10.55-1.49-13.74-4.48Z"/>
        <path class="cls-2" d="M491.57,139.52c-2.15-2.22-3.22-5.46-3.22-9.71v-24.81h-8.5v-4.63h4.78c1.26,0,2.19-.31,2.81-.94.6-.63.91-1.66.91-3.07v-5.08h5.31v9.1h12.6v4.63h-12.6v24.96c0,2.63.65,4.63,1.93,5.99,1.29,1.36,3.02,2.05,5.2,2.05,1.92,0,3.74-.31,5.46-.91v4.78c-1.82.65-3.8.98-5.92.98-3.69,0-6.61-1.11-8.76-3.34Z"/>
        <path class="cls-2" d="M514.56,95.14c-.74-.6-1.1-1.41-1.1-2.43s.37-1.82,1.1-2.43c.73-.6,1.75-.91,3.07-.91s2.34.31,3.07.91c.73.6,1.1,1.41,1.1,2.43s-.37,1.82-1.1,2.43c-.73.61-1.76.91-3.07.91s-2.33-.3-3.07-.91ZM514.98,142.1v-41.73h5.31v41.73h-5.31Z"/>
        <path class="cls-2" d="M542.25,140.05c-3.77-1.87-6.67-4.45-8.69-7.74-2.03-3.29-3.04-6.98-3.04-11.08s1.01-7.79,3.04-11.08c2.02-3.28,4.92-5.87,8.69-7.74,3.76-1.87,8.2-2.81,13.31-2.81s9.54.94,13.31,2.81c3.76,1.87,6.66,4.45,8.69,7.74,2.02,3.28,3.03,6.98,3.03,11.08s-1.01,7.79-3.03,11.08c-2.03,3.28-4.92,5.87-8.69,7.74-3.77,1.87-8.21,2.81-13.31,2.81s-9.55-.94-13.31-2.81ZM566.22,136.03c2.96-1.41,5.21-3.4,6.75-5.96,1.54-2.55,2.31-5.5,2.31-8.83s-.77-6.29-2.31-8.84c-1.54-2.55-3.79-4.54-6.75-5.96-2.95-1.41-6.51-2.12-10.65-2.12s-7.7.71-10.66,2.12c-2.95,1.42-5.2,3.4-6.75,5.96-1.54,2.55-2.31,5.5-2.31,8.84s.77,6.28,2.31,8.83c1.55,2.56,3.8,4.54,6.75,5.96,2.96,1.41,6.51,2.12,10.66,2.12s7.7-.71,10.65-2.12Z"/>
        <path class="cls-2" d="M590.84,142.1v-41.73h5.31v7.51h.38c1.27-2.07,3.36-3.97,6.29-5.69,2.93-1.72,6.29-2.57,10.09-2.57,5.96,0,10.54,1.49,13.73,4.47,3.19,2.98,4.78,7.13,4.78,12.44v25.56h-5.31v-25.56c0-3.84-1.18-6.86-3.53-9.07-2.35-2.2-5.72-3.3-10.13-3.3-2.73,0-5.23.53-7.47,1.59-2.25,1.06-4.13,2.41-5.62,4.02-1.49,1.62-2.57,3.24-3.22,4.85v27.46h-5.31Z"/>
      </g>
      <g>
        <path class="cls-3" d="M34.28,0c13.67.18,27.24,11.08,31.15,24.91,4.13,17.29,7.82,33.74,19.57,48.27,11.59,16.75,36.72,31.96,54.58,34.69,7.26,1.47,14.98,1.97,23.46,6.4,35.54,18.2,12.56,73.51-25.53,60.85-22.35-6.38-22.79-30.89-29.1-49.09-7.14-20.41-27.76-42.26-47.73-50.55-21.56-10.23-31.63-4.33-48.17-16.21C-11.67,41.48,2.42.09,31.87,0h2.4Z"/>
        <path class="cls-1" d="M0,109.03h33.38c19.09,0,34.59,15.5,34.59,34.59v33.38H0v-67.97h0Z"/>
        <path class="cls-1" d="M113.01.06h67.97v67.97h-33.98c-18.76,0-33.99-15.23-33.99-33.99V.06h0Z"/>
      </g>
    </g>
  </g>
</svg>